<?xml version="1.0" standalone="no"?>
<!DOCTYPE svg PUBLIC "-//W3C//DTD SVG 20010904//EN"
 "http://www.w3.org/TR/2001/REC-SVG-20010904/DTD/svg10.dtd">
<svg version="1.0" xmlns="http://www.w3.org/2000/svg"
 width="652.000000pt" height="652.000000pt" viewBox="0 0 652.000000 652.000000"
 preserveAspectRatio="xMidYMid meet">
<metadata>
Created by potrace 1.11, written by Peter Selinger 2001-2013
</metadata>
<g transform="translate(0.000000,652.000000) scale(0.100000,-0.100000)"
fill="#000000" stroke="none">
<path d="M2845 6501 c-71 -17 -143 -70 -173 -126 -32 -62 -41 -134 -42 -363 0
-125 -4 -230 -8 -234 -4 -4 -18 -9 -32 -12 -148 -28 -449 -147 -601 -237 -29
-16 -58 -29 -65 -27 -7 2 -89 78 -181 169 -181 177 -228 210 -317 217 -36 3
-69 -3 -111 -18 -56 -21 -80 -43 -347 -309 -317 -316 -338 -344 -338 -451 0
-97 30 -143 216 -331 l166 -167 -59 -104 c-86 -151 -140 -273 -202 -457 l-56
-163 -215 -1 c-275 0 -331 -14 -403 -97 -63 -74 -67 -108 -67 -534 0 -448 3
-466 84 -554 58 -62 113 -74 357 -77 119 -1 221 -5 227 -9 7 -4 12 -16 12 -28
0 -32 58 -222 102 -338 23 -58 73 -168 113 -245 l73 -140 -148 -150 c-172
-175 -198 -216 -198 -315 0 -110 16 -131 332 -446 297 -297 325 -319 425 -331
100 -12 178 36 352 215 59 60 112 113 118 116 6 4 46 -12 89 -37 208 -118 435
-211 630 -257 l52 -12 1 -189 c1 -104 2 -192 3 -196 1 -5 5 -26 10 -48 17 -87
67 -148 151 -187 45 -20 70 -23 233 -26 l182 -4 0 816 c0 770 -1 816 -17 817
-399 14 -755 167 -1040 446 -232 228 -375 477 -443 768 -27 117 -34 192 -35
360 0 198 11 290 55 447 69 251 199 468 405 674 271 272 566 415 950 459 57 6
285 7 330 1 17 -3 51 -7 76 -11 56 -7 64 -9 154 -29 516 -120 989 -580 1129
-1097 14 -52 28 -110 31 -129 3 -19 7 -46 10 -60 3 -14 7 -47 10 -74 2 -27 7
-51 9 -53 5 -5 193 -5 1258 -4 l427 1 -3 168 c-3 138 -7 176 -23 218 -34 88
-96 138 -201 162 -24 6 -137 11 -250 11 -114 0 -215 0 -224 1 -10 0 -18 6 -18
14 0 24 -76 246 -115 336 -34 81 -141 288 -170 334 -13 20 -5 31 153 191 196
200 226 246 226 345 0 108 -22 138 -331 446 -309 309 -345 335 -452 330 -99
-5 -138 -31 -334 -225 l-178 -176 -42 24 c-186 105 -390 189 -594 246 -35 10
-63 20 -64 24 -1 3 -2 114 -4 246 -1 152 -6 256 -14 285 -17 61 -54 115 -100
146 -76 50 -114 54 -526 53 -209 -1 -393 -5 -410 -8z"/>
<path d="M3125 4402 c-323 -34 -590 -181 -807 -442 -115 -139 -211 -351 -234
-515 -3 -27 -8 -59 -10 -70 -6 -32 -7 -261 -1 -281 3 -11 8 -40 12 -66 18
-144 102 -343 203 -478 215 -289 522 -459 875 -483 l47 -4 0 91 c0 50 1 334 3
631 l2 540 585 3 c322 1 591 4 598 7 7 3 11 8 9 12 -3 5 -8 32 -11 62 -19 162
-92 346 -193 490 -58 82 -207 233 -293 296 -126 92 -288 161 -449 191 -79 15
-265 24 -336 16z"/>
<path d="M3541 3000 c-9 -7 -8 -2946 1 -2955 4 -4 209 -8 456 -9 l449 -1 -1
717 -1 717 28 -27 c16 -15 339 -337 718 -716 l689 -689 317 316 318 317 -720
720 -720 720 720 2 720 3 0 433 c0 238 -2 438 -5 445 -4 9 -332 12 -1483 12
-814 0 -1482 -2 -1486 -5z"/>
</g>
</svg>
